#!OML:ASF H:\Terrain\Patient Classification 1\Walking\steve\steve.ASF
:FULLY-SPECIFIED
:DEGREES
242
root 8.44483 14.8928 23.7446 12.7831 3.06841 1.99862
lowerback 5.63744 -4.87476 -0.619708
upperback -3.38955 -6.29593 4.95927
thorax -6.07035 -2.98221 6.21305
lowerneck -13.273 2.01062 2.78103
upperneck 10.6161 2.54024 -2.67456
head 5.44298 1.15861 -1.07513
rclavicle -3.53837e-014 0
rhumerus -74.2145 -14.7812 -33.0769
rradius 21.6323
rwrist 0.292818
rhand -15.2841 -36.5024
rfingers 7.12502
rthumb 10.8908 -66.1999
lclavicle -3.53837e-014 0
lhumerus 26.044 -1.2438 67.6802
lradius 39.05
lwrist 27.4499
lhand -20.5216 -14.8361
lfingers 7.12502
lthumb 5.83621 15.0635
rfemur -62.5579 0.614799 22.7212
rtibia 64.0621
rfoot -15.0133 3.01531
rtoes -3.41514
lfemur 20.741 -0.704839 -23.9032
ltibia 27.6954
lfoot 18.0229 13.838
ltoes -0.122241
243
root 8.44582 14.9354 23.9833 12.5357 2.62886 2.00958
lowerback 5.85883 -4.64503 -0.620374
upperback -3.31708 -5.99367 4.80039
thorax -6.16833 -2.83241 6.03621
lowerneck -12.7766 2.14169 3.08623
upperneck 10.6307 2.7018 -2.88672
head 5.37663 1.23867 -1.18123
rclavicle -6.06293e-014 9.54166e-015
rhumerus -72.6253 -15.6684 -36.0385
rradius 21.6432
rwrist -0.823701
rhand -15.8803 -36.1
rfingers 7.12502
rthumb 10.3156 -65.827
lclavicle -6.06293e-014 9.54166e-015
lhumerus 23.9856 -1.01809 69.0569
lradius 38.7018
lwrist 26.9093
lhand -20.2924 -15.0081
lfingers 7.12502
lthumb 6.05753 14.8853
rfemur -61.5013 1.1528 22.6895
rtibia 64.4055
rfoot -16.2401 2.6945
rtoes -5.08966
lfemur 18.8134 0.240204 -23.8048
ltibia 31.5223
lfoot 15.5475 10.9199
ltoes -6.97439
244
root 8.44642 14.9913 24.2277 12.3634 2.315 1.59063
lowerback 5.91057 -4.4328 -0.123618
upperback -3.23778 -5.66644 4.76833
thorax -6.1983 -2.69068 5.69412
lowerneck -12.271 2.20657 3.41342
upperneck 10.4391 2.80469 -3.3703
head 5.24749 1.27315 -1.38167
rclavicle 2.10712e-014 -2.8625e-014
rhumerus -70.8626 -16.3759 -39.3268
rradius 21.8447
rwrist -2.2534
rhand -16.5532 -36.0703
rfingers 7.12502
rthumb 9.66648 -65.8285
lclavicle 2.10712e-014 -2.8625e-014
lhumerus 21.8392 -0.805842 70.3903
lradius 38.3441
lwrist 26.6224
lhand -20.3285 -15.089
lfingers 7.12502
lthumb 6.02265 14.8054
rfemur -60.3492 1.67861 23.1477
rtibia 64.5253
rfoot -17.4742 2.36307
rtoes -6.90741
lfemur 16.8039 1.12867 -23.1691
ltibia 35.154
lfoot 12.3557 9.35527
ltoes -8.03973
245
root 8.44584 15.0499 24.4621 12.319 2.06246 1.63245
lowerback 5.96001 -4.22608 -0.0645842
upperback -3.24736 -5.38944 4.63702
thorax -6.28013 -2.55604 5.50081
lowerneck -12.1922 2.15031 3.4252
upperneck 10.5737 2.7521 -3.52047
head 5.27681 1.23782 -1.43551
rclavicle -2.04748e-014 9.54166e-015
rhumerus -69.1506 -17.1619 -42.1919
rradius 22.2018
rwrist -3.17771
rhand -16.462 -36.1245
rfingers 7.12502
rthumb 9.75447 -65.8786
lclavicle -2.04748e-014 9.54166e-015
lhumerus 19.6739 -0.95081 71.5261
lradius 37.8676
lwrist 26.9342
lhand -21.015 -15.2533
lfingers 7.12502
lthumb 5.35982 14.659
rfemur -59.2161 2.08978 23.0066
rtibia 64.4836
rfoot -18.4404 2.72384
rtoes -5.19213
lfemur 14.5828 1.83639 -22.9743
ltibia 38.5954
lfoot 9.173 8.15924
ltoes -7.63745
246
root 8.44408 15.1202 24.6866 12.4528 1.84292 1.45662
lowerback 5.87464 -3.98998 0.127053
upperback -3.29597 -5.05581 4.64233
thorax -6.32877 -2.39718 5.36161
lowerneck -12.2571 2.07939 2.92043
upperneck 10.8855 2.70628 -3.17811
head 5.37164 1.21698 -1.24918
rclavicle -5.52621e-014 6.04305e-014
rhumerus -67.2243 -17.8027 -45.0373
rradius 22.7046
rwrist -4.27459
rhand -16.4499 -36.3398
rfingers 7.12502
rthumb 9.76611 -66.0933
lclavicle -5.52621e-014 6.04305e-014
lhumerus 17.6475 -1.14421 72.6776
lradius 37.1108
lwrist 27.1485
lhand -21.6289 -15.2796
lfingers 7.12502
lthumb 4.76711 14.6468
rfemur -58.174 2.54021 23.1302
rtibia 64.2747
rfoot -19.3063 2.9595
rtoes -3.54432
lfemur 12.0655 2.40285 -22.5569
ltibia 41.7347
lfoot 6.63434 6.83029
ltoes -10.5118
247
root 8.44484 15.1925 24.917 12.4977 1.5579 1.01485
lowerback 5.67677 -3.76503 0.486006
upperback -3.19838 -4.72582 4.73768
thorax -6.16154 -2.25144 5.20431
lowerneck -12.6325 2.15033 2.72727
upperneck 11.5251 2.83748 -3.13381
head 5.63576 1.26952 -1.18888
rclavicle -1.21259e-014 9.54166e-015
rhumerus -64.867 -19.0438 -47.0741
rradius 22.4879
rwrist -4.20254
rhand -17.1678 -35.7482
rfingers 7.12502
rthumb 9.07344 -65.5331
lclavicle -1.21259e-014 9.54166e-015
lhumerus 15.6821 -0.823528 73.9048
lradius 36.1362
lwrist 26.5681
lhand -21.681 -14.7107
lfingers 7.12502
lthumb 4.71683 15.2167
rfemur -56.9397 3.0017 23.6237
rtibia 63.9829
rfoot -20.222 2.74496
rtoes -4.49741
lfemur 9.72995 3.09507 -21.8857
ltibia 44.4987
lfoot 4.45553 5.42615
ltoes -13.8684
248
root 8.45154 15.2715 25.1739 12.2522 1.52913 0.750066
lowerback 4.8681 -3.63202 0.767785
upperback -2.55509 -4.57396 4.75037
thorax -5.05431 -2.21298 4.93449
lowerneck -13.3884 2.03484 2.6266
upperneck 11.7541 2.72339 -3.36573
head 5.8336 1.18347 -1.24989
rclavicle 2.78299e-015 6.99722e-014
rhumerus -61.9036 -20.788 -49.3493
rradius 22.2554
rwrist -3.87319
rhand -17.5135 -34.9495
rfingers 7.12502
rthumb 8.73981 -64.7485
lclavicle 2.78299e-015 6.99722e-014
lhumerus 14.3911 -0.215458 75.1587
lradius 34.8722
lwrist 25.8847
lhand -21.9962 -12.8294
lfingers 7.12502
lthumb 4.41241 17.1046
rfemur -55.185 3.01489 23.9702
rtibia 63.602
rfoot -21.2004 2.83214
rtoes -5.5946
lfemur 7.91873 3.62751 -21.3581
ltibia 46.8335
lfoot 2.14657 4.06765
ltoes -17.544
249
root 8.4593 15.3501 25.4203 12.0995 1.66451 0.644484
lowerback 5.7594 -3.51895 1.26158
upperback -3.33274 -4.32788 4.57884
thorax -6.45384 -2.08331 4.57879
lowerneck -12.4985 1.79166 2.37806
upperneck 12.2678 2.43659 -3.12474
head 5.83026 1.05667 -1.16463
rclavicle -3.69739e-014 2.70347e-014
rhumerus -60.7214 -19.1447 -53.4903
rradius 23.5574
rwrist -6.65515
rhand -17.4602 -34.6763
rfingers 7.12502
rthumb 8.7913 -64.4732
lclavicle -3.69739e-014 2.70347e-014
lhumerus 11.0239 -0.160701 76.4242
lradius 33.5554
lwrist 24.9201
lhand -22.6901 -9.84563
lfingers 7.12502
lthumb 3.7424 20.1013
rfemur -53.5397 2.819 24.1612
rtibia 63.1772
rfoot -22.1794 3.07909
rtoes -5.7718
lfemur 6.0136 3.89277 -21.0194
ltibia 48.8045
lfoot -0.405449 3.00406
ltoes -18.778
250
root 8.46177 15.4213 25.6479 12.1895 1.65829 0.706281
lowerback 5.12491 -3.43183 1.22597
upperback -3.14537 -4.25087 4.49601
thorax -5.89918 -2.05614 4.44011
lowerneck -12.1769 1.75947 2.08277
upperneck 11.9124 2.4039 -2.84587
head 5.65611 1.05295 -1.03358
rclavicle -9.93923e-016 7.95139e-015
rhumerus -57.828 -18.2494 -57.9426
rradius 24.492
rwrist -9.0996
rhand -18.7119 -33.5778
rfingers 7.12502
rthumb 7.58326 -63.4219
lclavicle -9.93923e-016 7.95139e-015
lhumerus 9.33723 0.876037 77.5719
lradius 31.9474
lwrist 23.2147
lhand -22.7305 -9.69819
lfingers 7.12502
lthumb 3.70334 20.2494
rfemur -52.319 2.76361 24.1942
rtibia 62.78
rfoot -23.1057 2.92279
rtoes -7.06694
lfemur 3.82956 4.16808 -20.953
ltibia 50.5409
lfoot -3.00245 1.93478
ltoes -19.1892
251
root 8.46196 15.4979 25.8818 12.2426 1.61912 1.37886
lowerback 4.81483 -3.37306 0.512136
upperback -3.2349 -4.24641 4.29582
thorax -5.7781 -2.03202 4.60844
lowerneck -11.9315 1.60277 1.64908
upperneck 12.2541 2.2721 -2.78423
head 5.71308 0.973262 -0.956016
rclavicle 8.38871e-014 1.27222e-014
rhumerus -55.2285 -17.389 -61.5082
rradius 24.8262
rwrist -10.7294
rhand -22.2709 -30.6678
rfingers 7.12502
rthumb 4.1472 -60.6072
lclavicle 8.38871e-014 1.27222e-014
lhumerus 7.10225 1.99711 78.6608
lradius 30.3887
lwrist 21.4562
lhand -22.1318 -12.6975
lfingers 7.12502
lthumb 4.28148 17.2392
rfemur -51.1424 2.51234 23.5478
rtibia 62.3598
rfoot -23.858 2.84895
rtoes -9.22427
lfemur 1.66493 4.29297 -21.6301
ltibia 52.1821
lfoot -5.84148 0.909963
ltoes -21.6442
252
root 8.46086 15.5733 26.1142 12.0623 1.58443 2.13591
lowerback 4.9005 -3.26519 -0.315619
upperback -3.30898 -4.17473 4.04722
thorax -5.86905 -1.96616 4.81456
lowerneck -11.7784 1.69205 1.62256
upperneck 12.857 2.47159 -3.1705
head 5.88636 1.03645 -1.05731
rclavicle 9.93923e-016 -3.18055e-014
rhumerus -52.6561 -16.2567 -65.0154
rradius 24.9802
rwrist -12.3511
rhand -21.1825 -32.9676
rfingers 7.12502
rthumb 5.19811 -62.8838
lclavicle 9.93923e-016 -3.18055e-014
lhumerus 4.82219 2.98986 79.675
lradius 28.7379
lwrist 19.8387
lhand -22.0034 -14.7559
lfingers 7.12502
lthumb 4.40553 15.1783
rfemur -49.6208 2.32991 22.7118
rtibia 61.9065
rfoot -24.5749 3.37934
rtoes -8.66871
lfemur -0.344983 4.33061 -22.399
ltibia 53.6979
lfoot -8.62521 0.16504
ltoes -19.8647
253
root 8.4556 15.6442 26.3492 11.6978 1.43382 1.2938
lowerback 5.38241 -2.93148 0.366353
upperback -3.53972 -3.64292 4.2388
thorax -6.46472 -1.71254 4.63275
lowerneck -11.3476 1.55583 0.796636
upperneck 13.2096 2.29472 -2.17962
head 5.89819 0.986301 -0.626889
rclavicle -7.35503e-015 -1.74931e-014
rhumerus -50.6296 -14.7479 -68.051
rradius 25.2348
rwrist -13.3242
rhand -20.7711 -33.794
rfingers 7.12502
rthumb 5.59534 -63.7001
lclavicle -7.35503e-015 -1.74931e-014
lhumerus 2.17143 3.58231 80.7004
lradius 27.0686
lwrist 18.267
lhand -22.3266 -15.4968
lfingers 7.12502
lthumb 4.09343 14.4436
rfemur -47.6308 2.91366 23.6089
rtibia 61.1039
rfoot -25.3217 3.44828
rtoes -6.51263
lfemur -2.23236 4.91805 -21.3251
ltibia 55.2339
lfoot -11.2136 -0.461386
ltoes -16.6405
254
root 8.46197 15.7113 26.5773 11.549 1.52815 1.18162
lowerback 5.99065 -2.65793 0.624221
upperback -4.09266 -3.21712 4.23131
thorax -7.45356 -1.49179 4.50713
lowerneck -10.4498 1.63996 1.64252
upperneck 13.6803 2.53156 -3.8183
head 5.92901 1.02346 -1.26911
rclavicle 2.66371e-014 -3.18055e-014
rhumerus -49.1123 -13.2749 -70.5
rradius 25.5845
rwrist -13.375
rhand -20.7146 -34.9476
rfingers 7.12502
rthumb 5.64993 -64.8523
lclavicle 2.66371e-014 -3.18055e-014
lhumerus -0.753141 4.14217 81.6496
lradius 25.3284
lwrist 16.4319
lhand -22.3613 -15.6951
lfingers 7.12502
lthumb 4.05983 14.246
rfemur -45.9652 2.77879 23.7847
rtibia 60.2089
rfoot -25.9209 3.61071
rtoes -5.26151
lfemur -4.31551 5.09326 -21.202
ltibia 56.6157
lfoot -13.5695 -0.379476
ltoes -16.9952
